REM DIRINDEX 1\2,1\3
REM DIRNAME cjc039,folder01,folder02
TITLE ""
FILE "2501-2520.mp3" MP3
  TRACK 01 AUDIO
    TITLE "0:"
    INDEX 01 00:00:00
  TRACK 02 AUDIO
    TITLE "2:cjc039_4001"
    INDEX 01 00:00:25
  TRACK 03 AUDIO
    TITLE "0:"
    INDEX 01 00:01:22
  TRACK 04 AUDIO
    TITLE "3:cjc039_4002"
    INDEX 01 00:01:69
  TRACK 05 AUDIO
    TITLE "0:"
    INDEX 01 00:05:50
  TRACK 06 AUDIO
    TITLE "2:cjc039_4003"
    INDEX 01 00:07:21
  TRACK 07 AUDIO
    TITLE "0:"
    INDEX 01 00:08:52
  TRACK 08 AUDIO
    TITLE "3:cjc039_4004"
    INDEX 01 00:09:26
  TRACK 09 AUDIO
    TITLE "0:"
    INDEX 01 00:13:37
  TRACK 10 AUDIO
    TITLE "2:cjc039_4005"
    INDEX 01 00:15:13
  TRACK 11 AUDIO
    TITLE "0:"
    INDEX 01 00:16:28
  TRACK 12 AUDIO
    TITLE "3:cjc039_4006"
    INDEX 01 00:17:04
  TRACK 13 AUDIO
    TITLE "0:"
    INDEX 01 00:20:28
  TRACK 14 AUDIO
    TITLE "2:cjc039_4007"
    INDEX 01 00:21:74
  TRACK 15 AUDIO
    TITLE "0:"
    INDEX 01 00:23:08
  TRACK 16 AUDIO
    TITLE "3:cjc039_4008"
    INDEX 01 00:23:55
  TRACK 17 AUDIO
    TITLE "0:"
    INDEX 01 00:27:39
  TRACK 18 AUDIO
    TITLE "2:cjc039_4009"
    INDEX 01 00:29:13
  TRACK 19 AUDIO
    TITLE "0:"
    INDEX 01 00:30:32
  TRACK 20 AUDIO
    TITLE "3:cjc039_4010"
    INDEX 01 00:31:06
  TRACK 21 AUDIO
    TITLE "0:"
    INDEX 01 00:34:65
  TRACK 22 AUDIO
    TITLE "2:cjc039_4011"
    INDEX 01 00:36:42
  TRACK 23 AUDIO
    TITLE "0:"
    INDEX 01 00:37:73
  TRACK 24 AUDIO
    TITLE "3:cjc039_4012"
    INDEX 01 00:38:45
  TRACK 25 AUDIO
    TITLE "0:"
    INDEX 01 00:44:16
  TRACK 26 AUDIO
    TITLE "2:cjc039_4013"
    INDEX 01 00:45:69
  TRACK 27 AUDIO
    TITLE "0:"
    INDEX 01 00:47:17
  TRACK 28 AUDIO
    TITLE "3:cjc039_4014"
    INDEX 01 00:47:68
  TRACK 29 AUDIO
    TITLE "0:"
    INDEX 01 00:52:73
  TRACK 30 AUDIO
    TITLE "2:cjc039_4015"
    INDEX 01 00:54:48
  TRACK 31 AUDIO
    TITLE "0:"
    INDEX 01 00:56:14
  TRACK 32 AUDIO
    TITLE "3:cjc039_4016"
    INDEX 01 00:56:61
  TRACK 33 AUDIO
    TITLE "0:"
    INDEX 01 01:02:55
  TRACK 34 AUDIO
    TITLE "2:cjc039_4017"
    INDEX 01 01:04:31
  TRACK 35 AUDIO
    TITLE "0:"
    INDEX 01 01:06:08
  TRACK 36 AUDIO
    TITLE "3:cjc039_4018"
    INDEX 01 01:06:59
  TRACK 37 AUDIO
    TITLE "0:"
    INDEX 01 01:10:22
  TRACK 38 AUDIO
    TITLE "2:cjc039_4019"
    INDEX 01 01:11:74
  TRACK 39 AUDIO
    TITLE "0:"
    INDEX 01 01:13:08
  TRACK 40 AUDIO
    TITLE "3:cjc039_4020"
    INDEX 01 01:13:61
  TRACK 41 AUDIO
    TITLE "0:"
    INDEX 01 01:17:55
  TRACK 42 AUDIO
    TITLE "2:cjc039_4021"
    INDEX 01 01:19:32
  TRACK 43 AUDIO
    TITLE "0:"
    INDEX 01 01:20:38
  TRACK 44 AUDIO
    TITLE "3:cjc039_4022"
    INDEX 01 01:21:12
  TRACK 45 AUDIO
    TITLE "0:"
    INDEX 01 01:24:55
  TRACK 46 AUDIO
    TITLE "2:cjc039_4023"
    INDEX 01 01:26:32
  TRACK 47 AUDIO
    TITLE "0:"
    INDEX 01 01:28:04
  TRACK 48 AUDIO
    TITLE "3:cjc039_4024"
    INDEX 01 01:28:57
  TRACK 49 AUDIO
    TITLE "0:"
    INDEX 01 01:32:23
  TRACK 50 AUDIO
    TITLE "2:cjc039_4025"
    INDEX 01 01:33:70
  TRACK 51 AUDIO
    TITLE "0:"
    INDEX 01 01:35:04
  TRACK 52 AUDIO
    TITLE "3:cjc039_4026"
    INDEX 01 01:35:61
  TRACK 53 AUDIO
    TITLE "0:"
    INDEX 01 01:40:19
  TRACK 54 AUDIO
    TITLE "2:cjc039_4027"
    INDEX 01 01:41:73
  TRACK 55 AUDIO
    TITLE "0:"
    INDEX 01 01:43:56
  TRACK 56 AUDIO
    TITLE "3:cjc039_4028"
    INDEX 01 01:44:36
  TRACK 57 AUDIO
    TITLE "0:"
    INDEX 01 01:48:60
  TRACK 58 AUDIO
    TITLE "2:cjc039_4029"
    INDEX 01 01:50:39
  TRACK 59 AUDIO
    TITLE "0:"
    INDEX 01 01:51:64
  TRACK 60 AUDIO
    TITLE "3:cjc039_4030"
    INDEX 01 01:52:46
  TRACK 61 AUDIO
    TITLE "0:"
    INDEX 01 01:57:11
  TRACK 62 AUDIO
    TITLE "2:cjc039_4031"
    INDEX 01 01:58:62
  TRACK 63 AUDIO
    TITLE "0:"
    INDEX 01 02:00:20
  TRACK 64 AUDIO
    TITLE "3:cjc039_4032"
    INDEX 01 02:00:71
  TRACK 65 AUDIO
    TITLE "0:"
    INDEX 01 02:05:23
  TRACK 66 AUDIO
    TITLE "2:cjc039_4033"
    INDEX 01 02:06:03
  TRACK 67 AUDIO
    TITLE "0:"
    INDEX 01 02:07:31
  TRACK 68 AUDIO
    TITLE "3:cjc039_4034"
    INDEX 01 02:08:11
  TRACK 69 AUDIO
    TITLE "0:"
    INDEX 01 02:12:35
  TRACK 70 AUDIO
    TITLE "2:cjc039_4035"
    INDEX 01 02:14:10
  TRACK 71 AUDIO
    TITLE "0:"
    INDEX 01 02:15:49
  TRACK 72 AUDIO
    TITLE "3:cjc039_4036"
    INDEX 01 02:16:19
  TRACK 73 AUDIO
    TITLE "0:"
    INDEX 01 02:21:28
  TRACK 74 AUDIO
    TITLE "2:cjc039_4037"
    INDEX 01 02:23:03
  TRACK 75 AUDIO
    TITLE "0:"
    INDEX 01 02:24:16
  TRACK 76 AUDIO
    TITLE "3:cjc039_4038"
    INDEX 01 02:24:71
  TRACK 77 AUDIO
    TITLE "0:"
    INDEX 01 02:28:73
  TRACK 78 AUDIO
    TITLE "2:cjc039_4039"
    INDEX 01 02:30:46
  TRACK 79 AUDIO
    TITLE "0:"
    INDEX 01 02:31:51
  TRACK 80 AUDIO
    TITLE "3:cjc039_4040"
    INDEX 01 02:32:29
  TRACK 81 AUDIO
    TITLE "0:"
    INDEX 01 02:36:15
